<?xml version="1.0" encoding="utf-8"?>
<!-- Generator: Adobe Illustrator 24.1.2, SVG Export Plug-In . SVG Version: 6.00 Build 0)  -->
<svg version="1.1" id="Layer_1" xmlns="http://www.w3.org/2000/svg" xmlns:xlink="http://www.w3.org/1999/xlink" x="0px" y="0px"
	 viewBox="0 0 490.7 490.7" style="enable-background:new 0 0 490.7 490.7;" xml:space="preserve">
<style type="text/css">
	.st0{fill:#FF9028;}
</style>
<g>
	<g>
		<path class="st0" d="M245.3,0C172.9,0,96,22.4,96,64v192c0,42,75.1,64,149.3,64s149.3-22,149.3-64V64C394.7,22.4,317.7,0,245.3,0z
			 M373.3,256c0,20.2-52.6,42.7-128,42.7s-128-22.5-128-42.7v-29.9c27.9,19.6,78.9,29.9,128,29.9s100.1-10.3,128-29.9V256z
			 M373.3,192c0,17.8-48.7,42.7-128,42.7s-128-24.9-128-42.7v-29.9c27.9,19.6,78.9,29.9,128,29.9s100.1-10.3,128-29.9V192z
			 M373.3,128c0,17.8-48.7,42.7-128,42.7s-128-24.9-128-42.7V98.1c27.9,19.6,78.9,29.9,128,29.9s100.1-10.3,128-29.9V128z
			 M245.3,106.7c-79.3,0-128-24.9-128-42.7c0-17.8,48.7-42.7,128-42.7s128,24.9,128,42.7C373.3,81.8,324.6,106.7,245.3,106.7z"/>
	</g>
</g>
<g>
	<g>
		<path class="st0" d="M248.7,384.4l-3.2-0.5c-18.7-3.1-21.5-7.9-21.5-10.5c0-4.2,8.5-10.7,21.4-10.7c12.6,0,20.9,6,21.4,10.3
			c0.6,5.9,5.7,10.4,11.6,9.6c5.9-0.6,10.2-5.8,9.6-11.6c-1.6-16.9-19.9-29.6-42.6-29.6c-23.9,0-42.7,14.1-42.7,32
			c0,16.7,13.2,27.3,39.4,31.6l1.7-10.5l1.4,11.1c17.7,2.9,21.4,7.4,21.4,10.6c0,4.2-8.5,10.7-21.4,10.7c-12.6,0-20.9-6-21.4-10.3
			c-0.6-5.9-5.6-10.2-11.6-9.6c-5.9,0.6-10.2,5.8-9.6,11.6c1.6,16.9,19.9,29.6,42.6,29.6c23.9,0,42.7-14.1,42.7-32
			C288,399.3,274.8,388.7,248.7,384.4z"/>
	</g>
</g>
<g>
	<g>
		<path class="st0" d="M394.7,373.3c0-17.6-14.4-32-32-32h-21.3c-17.6,0-32,14.4-32,32V416c0,17.6,14.4,32,32,32h21.3
			c4.9,0,9.5-1.2,13.7-3.2l0.1,0.1c2.1,2.1,4.8,3.1,7.6,3.1s5.5-1,7.5-3.1c4.2-4.2,4.2-10.9,0-15.1l-0.1-0.1c2-4.2,3.2-8.8,3.2-13.7
			L394.7,373.3L394.7,373.3z M373.3,411.6l-3.1-3.1c-4.2-4.2-10.9-4.2-15.1,0s-4.2,10.9,0,15.1l3.1,3.1h-16.9
			c-5.9,0-10.7-4.8-10.7-10.7v-42.7c0-5.9,4.8-10.7,10.7-10.7h21.3c5.9,0,10.7,4.8,10.7,10.7V411.6z"/>
	</g>
</g>
<g>
	<g>
		<path class="st0" d="M469.3,426.7h-32V352c0-5.9-4.8-10.7-10.7-10.7S416,346.1,416,352v85.3c0,5.9,4.8,10.7,10.7,10.7h42.7
			c5.9,0,10.7-4.8,10.7-10.7S475.2,426.7,469.3,426.7z"/>
	</g>
</g>
<g>
	<g>
		<path class="st0" d="M175.4,385.1c-5.3-2.6-11.7-0.5-14.3,4.8l-11.8,23.6l-11.8-23.6c-2.6-5.3-9-7.4-14.3-4.8
			c-5.3,2.6-7.4,9-4.8,14.3l19,37.9l-18.9,37.9c-2.6,5.3-0.5,11.7,4.8,14.3c1.5,0.8,3.2,1.1,4.8,1.1c3.9,0,7.7-2.2,9.6-5.9
			l42.7-85.3C182.8,394.2,180.7,387.8,175.4,385.1z"/>
	</g>
</g>
<g>
	<g>
		<path class="st0" d="M88.7,341.9c-4.3-1.5-9.2,0-11.9,3.7l-23.5,31.3l-23.5-31.3c-2.8-3.7-7.5-5.2-11.9-3.7
			c-4.4,1.5-7.3,5.5-7.3,10.1v85.3c0,5.9,4.8,10.7,10.7,10.7S32,443.2,32,437.3V384l12.8,17.1c4,5.4,13.1,5.4,17.1,0L74.7,384v53.3
			c0,5.9,4.8,10.7,10.7,10.7S96,443.2,96,437.3V352C96,347.4,93.1,343.3,88.7,341.9z"/>
	</g>
</g>
</svg>
